<?xml version="1.0" encoding="utf-8" ?>
<svg xmlns="http://www.w3.org/2000/svg" xmlns:xlink="http://www.w3.org/1999/xlink" width="601" height="655">
	<path fill="#090D0C" d="M52.7261 7.1794C65.1399 6.93113 77.6046 7.14845 90.0226 7.1553L160.96 7.18157L376.186 7.21222L491.818 7.19993L526.507 7.18781C533.176 7.17869 540.103 6.79094 546.728 7.44218C554.879 8.24348 562.877 11.3348 569.184 16.5851C576.876 22.9876 582.499 31.8256 583.352 41.9336C583.877 48.1668 583.416 54.7773 583.411 61.0438L583.432 100.511L583.491 238.209L583.44 363.316L583.493 400.091C583.533 407.408 584.056 415.068 583.304 422.33C582.575 429.367 578.886 436.541 574.306 441.846C567.079 450.218 556.873 455.79 545.749 456.584C533.303 456.992 520.709 456.594 508.25 456.598L433.55 456.578L229.794 456.606L106.904 456.645L70.0436 456.682C63.1332 456.694 55.856 457.158 48.9915 456.381C39.6987 455.331 31.2466 451.042 24.4482 444.694C17.5885 438.289 12.7444 428.616 12.4642 419.168C12.1875 409.836 12.4578 400.42 12.4733 391.081L12.5053 338.224L12.5018 172.23L12.5001 83.6658L12.4804 56.5456C12.4792 51.5888 12.1443 46.392 12.7472 41.4812C13.6755 33.9189 17.738 25.4893 23.0274 20.0126Q23.7483 19.2657 24.5052 18.5554Q25.262 17.845 26.0531 17.1729Q26.8441 16.5008 27.6674 15.8685Q28.4907 15.2363 29.3442 14.6455Q30.1977 14.0547 31.0793 13.5067Q31.9609 12.9588 32.8686 12.4551Q33.7762 11.9513 34.7076 11.493Q35.639 11.0347 36.5918 10.623Q37.5447 10.2112 38.5168 9.847Q39.4889 9.4828 40.4777 9.16704Q41.4666 8.85129 42.4698 8.58475Q43.4731 8.31821 44.4883 8.10154Q45.5035 7.88486 46.5281 7.71859Q47.5528 7.55231 48.5844 7.43683Q49.616 7.32135 50.6521 7.25695Q51.6881 7.19256 52.7261 7.1794Z"/>
	<path fill="#B7E5EB" d="M51.7013 24.7206C51.8539 24.7078 52.0063 24.6899 52.1593 24.6821C62.5593 24.1535 73.249 24.6376 83.675 24.646L145.379 24.6679L337.665 24.6531L478.128 24.6309L521.841 24.6377C529.596 24.6281 537.773 24.1168 545.482 24.8056C550.143 25.2222 555.447 27.7359 558.867 30.9039C563.455 35.1545 565.971 40.7354 566.14 46.9634C566.406 56.7208 566.125 66.5472 566.112 76.3137L566.13 130.123L565.839 299.13L565.823 380.754L565.846 404.905C565.853 409.305 566.114 413.884 565.678 418.258C565.194 423.119 563.012 427.967 559.606 431.479C556.497 434.684 552.283 437.269 547.92 438.313C541.556 439.836 531.404 439.049 524.593 439.049L482.817 439.106C493.305 425.131 503.852 411.54 513.337 396.825C520.142 386.266 531.279 369.281 528.345 356.276C527.417 352.162 524.855 348.4 521.245 346.183C515.825 342.855 509.523 343.557 503.643 345.014C504.763 342.028 505.684 338.903 505.918 335.709C506.289 330.668 504.959 324.804 501.532 320.956Q501.071 320.441 500.561 319.974Q500.052 319.507 499.499 319.093Q498.945 318.679 498.354 318.321Q497.763 317.963 497.139 317.666Q496.515 317.368 495.865 317.134Q495.215 316.899 494.545 316.73Q493.874 316.561 493.191 316.459Q492.507 316.357 491.817 316.323C482.646 315.785 476.164 320.669 469.73 326.431C469.656 325.445 469.516 324.476 469.36 323.5C468.436 317.745 466.658 311.408 461.66 307.853C457.963 305.224 453.16 304.576 448.758 305.328C444.974 305.974 441.873 307.742 439.044 310.288C434.324 314.536 430.727 320.119 427.21 325.362C419.407 336.996 412.706 349.377 404.678 360.844C403.048 357.093 401.439 353.301 399.453 349.722C395.368 342.36 390.481 336.487 382.088 334.167C377.305 332.845 372.637 333.224 368.299 335.713C363.369 338.541 360.746 343.588 359.912 349.07C359.118 354.297 360.071 359.891 360.857 365.08C362.232 374.161 364.127 383.132 366.01 392.117C367.083 397.239 368.364 402.403 369.016 407.596C370.251 417.442 369.714 429.614 367.063 439.158C358.624 438.737 350.05 439.05 341.6 439.086C341.424 436.283 340.984 433.546 340.904 430.723C340.28 422.971 339.833 415.181 338.705 407.482C333.139 369.474 316.926 346.545 279.998 333.643C273.694 331.44 267.097 330.131 260.645 328.438C252.819 326.384 240.458 324.003 234.55 318.611C231.122 315.481 230.552 307.523 230.389 303.031C230.301 300.603 230.372 297.688 231.411 295.454C232.706 292.668 242.083 284.303 244.824 281.35C265.022 259.596 274.656 230.446 275.229 201.065C275.346 195.116 274.582 189.246 274.359 183.312C275.862 182.382 277.181 181.419 278.333 180.052C285.712 171.291 289.827 149.241 290.674 137.934C291.05 132.908 290.968 127.688 290.499 122.666C288.077 96.7131 277.904 72.2534 257.534 55.3921C236.441 37.9317 208.489 31.9778 181.659 34.5021C174.187 35.2052 166.63 36.4509 159.42 38.5609C130.458 47.0355 100.889 67.2793 81.731 90.4866C64.0088 111.954 52.573 138.504 55.3466 166.78C56.0367 173.815 57.7722 182.37 63.5206 187.071C61.0644 220.184 71.3709 251.629 93.8268 276.113C97.4876 280.104 106.928 287.492 108.778 291.725C111.16 297.175 110.565 312.863 108.493 318.562C97.5016 326.566 84.2823 330.115 71.8901 335.174C56.6112 341.412 43.2081 349.401 30.3321 359.687C30.6649 334.309 30.38 308.897 30.3804 283.514L30.3838 138.408L30.3665 76.4336L30.3631 56.8129C30.3639 52.848 30.1908 48.7947 30.5551 44.8482C30.8985 41.1278 32.5536 37.8094 34.7544 34.8366C38.8883 29.2525 44.8598 25.7826 51.7013 24.7206Z"/>
	<path fill="#F2E2BE" d="M179.496 135.547C182.211 136.946 185.304 142.019 187.706 144.28C191.892 148.219 196.67 151.662 201.648 154.531C214.88 162.16 230.198 166.097 244.421 171.457C248.37 172.946 252.199 174.815 256.026 176.59C258.088 187.676 259.292 199.161 258.584 210.443C257.142 233.419 246.893 257.594 230.264 273.707C228.409 275.504 226.41 277.25 224.36 278.819C220.977 281.407 216.048 283.966 214.379 288.111C212.048 293.9 214.855 319.548 217.499 325.464C221.479 334.366 230.783 337.121 239.187 340.358C240.26 357.537 242.956 374.683 244.358 391.846C245.64 407.54 245.649 423.269 246.646 438.972C225.375 439.248 204.07 439.011 182.795 439.01C164.897 438.991 146.985 439.192 129.089 438.985C126.029 430.262 126.299 419.666 125.678 410.461Q124.767 396.646 123.405 382.868C121.728 367.451 118.402 352.114 117.441 336.62C118.715 335.552 120.048 334.402 121.13 333.135C126.032 327.395 125.346 319.143 125.709 312.098C126.084 304.816 127.064 292.758 124.936 285.8C122.927 279.23 115.441 274.206 110.642 269.61Q106.392 265.472 102.4 261.084C98.4628 256.702 94.5583 251.254 91.9425 245.948C84.9738 231.813 80.6973 217.318 79.5776 201.573C79.2293 196.675 79.5895 191.714 79.1113 186.838L79.0694 186.431C117.713 177.743 148.644 159.957 179.496 135.547Z"/>
	<path fill="#090D0C" d="M152.895 192.979C155.523 193.013 157.796 193.552 159.854 195.273C162.034 197.095 163.134 199.702 163.337 202.498C163.571 205.726 162.801 209.203 160.533 211.61C158.348 213.929 155.692 214.416 152.659 214.435C150.116 213.845 147.578 213.225 145.403 211.71C143.373 210.296 141.834 208.203 141.488 205.716C141.106 202.972 142.117 200.199 143.783 198.041C146.078 195.067 149.213 193.413 152.895 192.979Z"/>
	<path fill="#090D0C" d="M226.551 194.442Q226.791 194.432 227.031 194.433Q227.272 194.434 227.512 194.448Q227.752 194.461 227.991 194.486Q228.23 194.511 228.467 194.548Q228.705 194.585 228.94 194.633Q229.176 194.682 229.409 194.742Q229.641 194.802 229.871 194.873Q230.1 194.945 230.326 195.027Q230.552 195.11 230.773 195.204Q230.994 195.297 231.211 195.402Q231.427 195.506 231.638 195.621Q231.849 195.736 232.055 195.861Q232.26 195.987 232.458 196.122Q232.657 196.257 232.849 196.402Q233.041 196.547 233.225 196.701Q233.41 196.855 233.586 197.018Q233.763 197.181 233.931 197.353Q234.099 197.524 234.259 197.704Q234.419 197.884 234.569 198.071Q234.72 198.258 234.861 198.453Q235.003 198.647 235.134 198.848Q235.265 199.049 235.387 199.257Q235.508 199.464 235.619 199.677Q235.73 199.891 235.831 200.109Q235.931 200.327 236.021 200.55Q236.11 200.774 236.188 201.001Q236.267 201.228 236.334 201.459Q236.401 201.689 236.457 201.923Q236.512 202.157 236.556 202.393Q236.6 202.63 236.633 202.868Q236.665 203.106 236.686 203.345Q236.706 203.585 236.715 203.825Q236.724 204.065 236.721 204.305Q236.718 204.546 236.703 204.786Q236.688 205.026 236.661 205.264Q236.634 205.503 236.596 205.74Q236.557 205.978 236.507 206.213Q236.457 206.448 236.395 206.68Q236.334 206.912 236.261 207.141Q236.188 207.37 236.103 207.595Q236.019 207.82 235.924 208.041Q235.829 208.262 235.723 208.477Q235.617 208.693 235.5 208.903Q235.384 209.113 235.257 209.318Q235.13 209.522 234.994 209.72Q234.857 209.917 234.711 210.108Q234.565 210.299 234.409 210.482Q234.254 210.665 234.09 210.841Q233.925 211.016 233.753 211.184Q233.58 211.351 233.399 211.509Q233.218 211.667 233.03 211.817Q232.842 211.966 232.646 212.106Q232.451 212.246 232.249 212.376Q232.047 212.506 231.838 212.626Q231.63 212.746 231.416 212.855Q231.202 212.965 230.983 213.064Q230.764 213.163 230.54 213.25Q230.317 213.338 230.089 213.415Q229.861 213.492 229.63 213.557Q229.399 213.623 229.165 213.677Q228.93 213.731 228.694 213.773Q228.457 213.816 228.219 213.846Q227.98 213.877 227.741 213.896Q227.501 213.915 227.261 213.922Q227.023 213.929 226.785 213.924Q226.547 213.92 226.309 213.903Q226.071 213.887 225.835 213.859Q225.598 213.832 225.363 213.792Q225.128 213.753 224.895 213.702Q224.663 213.651 224.433 213.589Q224.203 213.527 223.976 213.454Q223.749 213.38 223.526 213.296Q223.304 213.212 223.085 213.117Q222.867 213.022 222.653 212.916Q222.44 212.811 222.231 212.695Q222.023 212.579 221.821 212.453Q221.619 212.327 221.423 212.191Q221.227 212.056 221.038 211.911Q220.849 211.766 220.668 211.611Q220.486 211.457 220.312 211.295Q220.138 211.132 219.972 210.961Q219.807 210.789 219.649 210.61Q219.492 210.431 219.344 210.245Q219.196 210.059 219.057 209.865Q218.918 209.672 218.788 209.472Q218.659 209.272 218.54 209.065Q218.42 208.859 218.311 208.648Q218.202 208.436 218.103 208.219Q218.004 208.002 217.916 207.781Q217.828 207.56 217.751 207.334Q217.674 207.109 217.608 206.88Q217.542 206.651 217.487 206.419Q217.433 206.187 217.389 205.953Q217.346 205.719 217.314 205.483Q217.282 205.247 217.262 205.009Q217.242 204.772 217.233 204.534Q217.224 204.296 217.227 204.058Q217.23 203.82 217.245 203.582Q217.26 203.344 217.286 203.107Q217.312 202.871 217.35 202.635Q217.387 202.4 217.437 202.167Q217.486 201.934 217.546 201.704Q217.607 201.473 217.678 201.246Q217.75 201.019 217.833 200.796Q217.916 200.572 218.009 200.353Q218.103 200.134 218.207 199.92Q218.311 199.706 218.425 199.497Q218.54 199.288 218.664 199.085Q218.789 198.882 218.923 198.685Q219.057 198.488 219.201 198.298Q219.345 198.108 219.498 197.926Q219.651 197.743 219.812 197.568Q219.974 197.393 220.144 197.226Q220.314 197.059 220.492 196.901Q220.669 196.742 220.855 196.593Q221.04 196.443 221.233 196.303Q221.425 196.163 221.624 196.032Q221.824 195.901 222.029 195.78Q222.234 195.659 222.445 195.549Q222.656 195.438 222.872 195.338Q223.088 195.238 223.309 195.148Q223.53 195.059 223.754 194.98Q223.979 194.901 224.208 194.834Q224.436 194.766 224.668 194.71Q224.899 194.653 225.133 194.608Q225.367 194.563 225.603 194.53Q225.839 194.496 226.076 194.474Q226.313 194.452 226.551 194.442Z"/>
	<path fill="#F2E2BE" d="M451.852 322.316C452.173 322.372 452.429 322.523 452.72 322.662C456.481 332.08 443.875 358.528 441.646 369.213Q441.845 370.026 442.109 370.82C442.87 373.135 444.033 375.893 446.387 376.973C448.783 378.073 451.649 376.74 453.376 374.997C454.967 373.39 455.818 370.698 457.19 368.819C464.165 359.269 479.016 337.45 489.683 333.332C487.996 346.281 480.067 359.221 472.776 369.841C470.593 373.022 468.079 376.034 466.029 379.294C464.289 382.063 463.308 385.373 464.134 388.629C464.485 390.013 465.224 391.312 466.54 391.974C468.842 393.131 472.455 392.168 474.462 390.773C477.319 388.786 479.687 385.729 482.081 383.199C491.225 373.531 499.993 363.863 513.083 359.799C511.97 363.714 510.805 367.569 509.104 371.281C506.187 377.647 502.171 383.538 498.334 389.377Q491.126 400.38 483.57 411.147C476.86 420.768 469.538 430.062 462.038 439.078C442.238 438.473 422.255 439.022 402.439 439.024C395.568 439.025 388.65 439.189 381.786 438.902C383.659 434.161 385.643 429.357 386.374 424.283C387.643 415.469 385.785 407.631 384.044 399.096L379.434 375.495C378.273 369.704 376.724 363.767 376.284 357.874C376.091 355.295 376.348 352.715 376.568 350.146C385.884 355.731 389.121 365.362 393.411 374.781C394.457 377.079 395.419 379.595 396.879 381.665C399.266 385.048 403.101 385.377 406.87 386.115C408.245 385.537 409.874 384.917 410.821 383.722C412.812 381.208 413.493 377.689 415.129 374.93C418.434 369.36 422.392 364.091 425.811 358.56Q431.909 348.625 438.161 338.786C440.369 335.348 442.535 331.698 445.087 328.511C447.087 326.011 449.116 323.987 451.852 322.316Z"/>
	<path fill="#F6F6F5" d="M199.179 50.3529C206.481 50.243 213.463 50.6603 220.59 52.3656C219.999 58.5334 217.938 64.4659 215.075 69.9299C210.649 78.3784 204.454 85.9271 198.398 93.2497C192.677 100.167 186.582 107.251 180.115 113.482C155.15 137.539 122.835 157.558 89.6235 167.94C84.3956 169.595 78.8163 170.337 73.4194 171.27C69.0533 162.946 71.9422 148.831 73.8356 140.05C113.224 130.275 152.173 100.48 180.353 72.1366C184.774 67.6893 188.738 62.6167 192.705 57.7657C194.666 55.3683 196.67 52.5635 198.993 50.5123C199.055 50.4582 199.117 50.406 199.179 50.3529Z"/>
	<path fill="#F6F6F5" d="M211.371 101.959C225.644 111.055 241.579 118.426 258.089 122.31C263.783 123.65 269.632 124.222 275.343 125.492C275.267 140.292 273.262 151.017 267.982 164.762C265.428 163.54 262.77 162.484 260.169 161.363C249.537 157.073 238.524 153.764 227.851 149.6C215.127 144.635 198.184 135.975 192.454 122.995L203.879 109.931C206.243 107.235 208.567 104.203 211.371 101.959Z"/>
	<path fill="#F2E2BE" d="M69.6627 354.029C69.7422 354.174 69.8484 354.308 69.9012 354.465C70.3414 355.778 70.1208 358.452 70.1998 359.901C71.2411 378.995 70.8099 398.415 69.9154 417.509C69.5886 424.485 69.9427 432.369 67.9395 439.11C56.7595 439.015 47.4161 439.406 37.9857 432.429Q37.3548 431.879 36.7676 431.283C34.1944 428.701 32.1054 425.649 31.0965 422.116C29.6504 417.054 30.3863 410.605 30.3967 405.375L30.457 383.686C41.9821 369.607 53.4416 361.945 69.6627 354.029Z"/>
	<path fill="#602C7B" d="M100.733 341.329C102.981 343.719 108.632 395.783 109.205 402.038C109.89 409.523 110.258 417.038 110.746 424.538C111.059 429.347 111.549 434.14 111.754 438.955L94.5667 439.025L84.3193 439.064C84.4424 432.943 85.1314 426.846 85.3429 420.726C86.1808 396.483 86.702 372.285 84.4152 348.097C89.6898 345.378 95.1783 343.377 100.733 341.329Z"/>
	<path fill="#F2E2BE" d="M289.723 354.886C293.78 356.473 299.026 361.159 302.207 364.138C312.376 373.659 319.133 388.43 321.937 401.966C323.148 407.809 323.607 413.799 324.211 419.728C324.867 426.173 325.495 432.585 325.716 439.063Q311.93 438.966 298.143 439.061C298.065 428.137 297.061 417.194 296.147 406.316C294.697 389.039 292.956 371.934 289.723 354.886Z"/>
	<path fill="#F6F6F5" d="M176.977 50.5965L178.011 50.5303L178.21 50.86C176.429 53.8807 169.749 60.6817 167.081 63.4012C144.743 86.1687 110.901 111.02 80.9966 122.823C80.5797 122.983 80.4016 122.969 79.9656 122.947C79.8907 121.077 85.3983 112.628 86.7377 110.6C100.996 89.0069 126.233 68.6412 150.05 58.585C158.621 54.9661 167.877 52.4609 176.977 50.5965Z"/>
	<path fill="#602C7B" d="M255.182 343.974C261.081 344.849 266.804 346.248 272.582 347.684C274.497 363.704 277.603 379.548 279.254 395.629C280.737 410.067 280.808 424.55 282.021 438.983C275.789 439.64 268.359 439.145 261.997 439.181Q262.195 409.317 259.267 379.596Q258.418 370.722 257.257 361.884C256.465 355.954 255.471 349.948 255.182 343.974Z"/>
	<path fill="#F6F6F5" d="M235.562 58.7282C255.356 71.5334 266.598 84.5636 272.425 107.896C268.628 107.831 264.793 107.024 261.077 106.281C248.654 103.492 230.69 99.127 223.34 87.7247C229.997 76.2514 232.467 71.9427 235.562 58.7282Z"/>
	<path fill="#090D0C" d="M285.39 491.314C290.075 490.999 309.192 490.711 312.79 491.811C314.403 492.304 315.142 493.541 316.033 494.87C318.721 498.879 320.879 503.386 323.215 507.612C326.427 513.423 329.799 519.146 333.057 524.932L367.709 587.015C367.401 581.352 367.556 575.644 367.563 569.974L367.575 543.62L367.592 514.728C367.595 509.535 367.429 504.268 367.674 499.084C367.751 497.446 367.791 494.715 369.057 493.588C372.932 490.138 379.992 491.322 384.79 491.315C387.661 491.31 390.634 491.02 393.494 491.247C395.263 491.388 397.903 491.951 399.036 493.485C400.229 495.101 400.586 498.046 400.677 500.029C401.169 510.755 400.736 521.716 400.735 532.472L400.723 595.813L400.71 626.119C400.712 630.017 401.303 634.741 400.613 638.521C400.285 640.314 399.519 642.335 397.937 643.382C397.08 643.95 396.19 644.222 395.176 644.004C392.997 645.295 372.964 644.875 369.57 644.412C367.992 644.197 365.832 643.908 364.848 642.536C362.319 639.009 360.389 634.994 358.316 631.188L348.554 613.297C336.845 591.894 325.269 570.247 312.84 549.262C312.681 560.007 313.426 636.742 312.162 639.825C311.385 641.72 309.755 643.268 307.847 643.973C306.757 644.376 305.579 644.575 304.422 644.651C300.928 644.881 297.288 644.52 293.776 644.502C291.126 644.489 288.418 644.835 285.779 644.571C284.601 644.453 283.464 644.208 282.411 643.649C281.365 643.093 280.482 642.295 280.167 641.125C278.771 635.92 279.568 627.302 279.573 621.731L279.598 590.839L279.585 530.743C279.578 520.29 279.315 509.761 279.618 499.315C279.667 497.639 279.573 495.155 280.487 493.692C281.572 491.956 283.543 491.663 285.39 491.314Z"/>
	<path fill="#090D0C" d="M77.93 486.962C86.2084 486.975 99.2988 491.046 106.521 495.02C119.456 502.135 128.743 513.6 132.794 527.812C133.564 530.513 135.091 535.955 133.646 538.541C132.454 539.312 131.349 539.627 129.943 539.822C125.151 540.486 112.562 540.233 107.481 539.94C106.547 539.886 105.113 539.848 104.331 539.329C102.89 538.372 98.9156 527.891 95.7903 524.597C91.2729 519.837 82.8331 517.656 76.512 517.39C66.7363 516.979 56.5646 519.679 49.2925 526.434C39.3076 535.709 34.4919 550.823 34.1375 564.158C33.7585 578.418 37.7378 596.204 47.7393 606.7C53.9048 613.17 63.196 616.762 72.0801 616.935C80.8482 617.106 90.2033 614.167 96.5251 607.933C103.196 601.355 105.609 593.827 105.614 584.662Q96.7083 584.428 87.8002 584.535C83.8643 584.548 79.5687 584.886 75.7025 584.07C75.1111 583.302 74.9489 582.347 74.7859 581.412C74.1363 577.683 73.7165 565.944 74.6838 562.462C74.9471 561.514 75.5513 560.695 76.1076 559.899C80.7987 557.721 99.4052 558.672 105.293 558.679C111.373 558.659 126.247 557.707 131.384 559.667C133.124 560.331 134.044 561.517 134.758 563.207C135.558 565.1 136.019 567.257 136.17 569.304C136.906 579.299 136.301 591.745 136.282 601.956L136.236 622.669C136.225 626.564 136.385 630.552 136.105 634.433C135.97 636.299 135.702 638.684 134.901 640.387C134.05 642.197 131.764 643.551 129.907 644.067C127.308 644.789 116.311 645.059 114.17 643.893C112.196 640.991 111.48 631.709 111.191 627.997L111.054 628.228C110.63 628.959 110.179 629.648 109.644 630.302C101.179 640.66 89.5269 646.518 76.2958 647.677C58.8043 649.209 39.7779 643.618 26.3174 632.265C9.16667 617.8 3.49104 594.61 1.62646 573.24C1.22544 568.644 1.56444 564.14 1.87589 559.554C3.1316 541.066 8.11664 523.701 20.3367 509.31C30.3695 497.495 45.5125 488.762 61.0932 487.36C66.5599 486.868 72.1034 487.471 77.5673 486.997L77.93 486.962Z"/>
	<path fill="#090D0C" d="M466.401 491.295C472.165 491.088 477.992 491.237 483.762 491.224C487.803 491.214 492.165 490.883 496.17 491.38C497.681 491.567 499.838 491.993 500.994 493.057C502.382 494.335 503.323 497.497 503.928 499.265C506.96 508.126 509.502 517.117 512.345 526.034L535.983 601.069C539.264 611.527 542.777 621.852 545.845 632.381C546.547 634.789 547.869 637.579 547.928 640.097C547.952 641.1 547.694 642.265 546.936 642.974C545.878 643.966 544.309 644.376 542.911 644.561C539.469 645.018 535.603 644.632 532.122 644.58C528.54 644.526 524.924 644.655 521.351 644.535C519.107 644.459 517.392 644.026 515.822 642.352C513.419 639.374 508.526 617.33 506.536 611.997C506.332 612.102 506.116 612.227 505.894 612.299C504.051 612.902 499.802 612.885 498.106 611.993C497.806 612.175 497.531 612.347 497.187 612.435C495.084 612.972 463.819 612.735 459.835 612.49C459.09 612.444 458.612 612.297 457.953 611.947C457.924 612.157 457.891 612.367 457.85 612.576C456.657 618.63 452.257 634.591 449.761 640.101C449.157 641.434 448.221 643.187 446.928 643.968C444.784 645.263 422.839 644.853 419.566 644.096C418.745 643.907 417.194 643.585 416.799 642.78C416.042 641.236 416.411 638.823 416.815 637.199C418.081 632.121 420.128 627.131 421.648 622.104Q429.545 596.25 437.877 570.533L453.204 522.302C455.809 514.128 457.946 505.661 461.019 497.661C462.182 494.631 463.359 492.666 466.401 491.295ZM483.135 583.271C486.012 583.28 496.526 583.851 498.509 582.843C498.464 581.333 498.112 579.931 497.723 578.479C496.445 573.717 482.822 528.637 482.466 528.202C482.303 528.004 482.169 527.945 481.964 527.827L481.912 528.222C480.808 536.091 465.483 579.675 466.691 582.831C470.435 584.051 478.885 583.295 483.135 583.271Z"/>
	<path fill="#090D0C" d="M202.928 489.435C209.495 488.526 217.263 489.184 223.71 490.551C234.841 492.911 244.401 498.892 250.63 508.51C256.092 516.944 258.047 528.404 255.843 538.205C253.141 550.225 245.718 556.961 235.793 563.295C236.387 563.468 236.959 563.659 237.53 563.899C246.468 567.665 253.819 575.846 257.446 584.739C261.799 595.412 261.06 608.843 256.532 619.337C251.596 630.779 242.544 639.008 231.021 643.51C218.322 648.472 195.037 647.701 182.405 642.067C171.711 637.297 163.79 630.223 159.575 619.095C157.832 614.495 155.271 603.286 157.394 598.609C158.857 597.42 168.551 598 170.96 598.021C174.302 598.007 177.975 597.64 181.262 598.06C185.657 598.62 185.844 602.613 187.198 606.027Q187.822 607.587 188.674 609.035Q189.526 610.483 190.585 611.787C194.572 616.71 199.806 619.088 206.026 619.735C212.125 620.369 218.29 619.533 223.14 615.522C227.643 611.798 230.507 605.894 230.981 600.101C231.428 594.642 230.074 588.74 226.412 584.547C219.784 576.959 207.699 578.155 198.589 577.47C198.011 575.045 198.017 554.822 198.929 553.156C202.086 551.653 207.795 552.608 211.355 552.324C215.326 552.007 218.728 549.945 221.234 546.918C225.089 542.26 226.489 535.84 225.903 529.905C225.456 525.38 223.37 521.221 219.792 518.38Q219.413 518.084 219.02 517.808Q218.627 517.532 218.221 517.275Q217.815 517.018 217.396 516.782Q216.978 516.546 216.548 516.331Q216.118 516.116 215.679 515.923Q215.239 515.729 214.79 515.558Q214.341 515.386 213.884 515.237Q213.427 515.089 212.964 514.962Q212.5 514.836 212.031 514.733Q211.561 514.63 211.088 514.551Q210.614 514.471 210.136 514.415Q209.659 514.359 209.18 514.327Q208.7 514.295 208.22 514.287Q207.74 514.278 207.259 514.294Q206.779 514.309 206.3 514.349Q205.821 514.388 205.345 514.451C197.858 515.409 192.013 520.473 189.307 527.405C188.435 529.64 187.975 532.361 186.504 534.281C182.823 535.345 164.301 535.292 160.891 534.036C160.63 533.531 160.525 533.071 160.464 532.511C159.484 523.383 164.096 512.704 169.605 505.651C177.916 495.01 190.005 491.089 202.928 489.435Z"/>
	<path fill="#090D0C" d="M567.639 491.304C573.145 491.124 590.505 490.181 594.357 492.854C595.443 493.608 595.628 495.209 595.841 496.456C596.714 501.574 596.206 507.409 596.207 512.626L596.203 543.13L596.191 605.353C596.175 615.808 596.456 626.37 596.079 636.814C596.017 638.545 595.917 640.269 594.825 641.697C594.133 642.603 593.317 643.18 592.203 643.308C591.777 643.716 591.352 644.055 590.781 644.23C588.008 645.085 570.053 645.113 567.788 644.035C567.067 643.958 566.248 643.516 565.739 642.996C564.879 642.118 564.628 640.726 564.577 639.544C564.225 631.408 564.551 623.095 564.555 614.943L564.578 566.241L564.594 519.908C564.598 511.293 564.32 502.562 564.756 493.964C565.613 492.756 566.314 492.003 567.639 491.304Z"/>
</svg>
